<svg width="22" height="22" viewBox="0 0 22 22" fill="none" xmlns="http://www.w3.org/2000/svg">
<path d="M7.07112 10.1238H4.53023C4.03953 10.1238 3.79418 10.1238 3.60676 10.2193C3.4419 10.3033 3.30786 10.4374 3.22386 10.6022C3.12837 10.7897 3.12837 11.035 3.12837 11.5257V18.8855M14.9566 10.1238H17.4975C17.9882 10.1238 18.2336 10.1238 18.421 10.2193C18.5859 10.3033 18.7199 10.4374 18.8039 10.6022C18.8994 10.7897 18.8994 11.035 18.8994 11.5257V18.8855M14.9566 18.8855V5.91824C14.9566 4.93684 14.9566 4.44614 14.7656 4.07129C14.5976 3.74157 14.3296 3.4735 13.9998 3.3055C13.625 3.1145 13.1343 3.1145 12.1529 3.1145H9.87486C8.89346 3.1145 8.40276 3.1145 8.02792 3.3055C7.69819 3.4735 7.43012 3.74157 7.26212 4.07129C7.07112 4.44614 7.07112 4.93684 7.07112 5.91824V18.8855M19.7756 18.8855H2.2522M10.1377 6.61917H11.89M10.1377 10.1238H11.89M10.1377 13.6285H11.89" stroke="#043FA1" stroke-width="1.75234" stroke-linecap="round" stroke-linejoin="round"/>
</svg>
