<svg width="22" height="22" viewBox="0 0 22 22" fill="none" xmlns="http://www.w3.org/2000/svg">
<g clip-path="url(#clip0_17_54)">
<path d="M7.94729 12.8785C7.94729 14.0076 8.8626 14.9229 9.99168 14.9229H11.89C13.0998 14.9229 14.0805 13.9422 14.0805 12.7325C14.0805 11.5228 13.0998 10.5421 11.89 10.5421H10.1377C8.92798 10.5421 7.94729 9.56139 7.94729 8.35166C7.94729 7.14192 8.92798 6.16124 10.1377 6.16124H12.0361C13.1652 6.16124 14.0805 7.07654 14.0805 8.20563M11.0139 4.84698V6.16124M11.0139 14.9229V16.2372M19.7756 10.5421C19.7756 15.381 15.8528 19.3038 11.0139 19.3038C6.17494 19.3038 2.2522 15.381 2.2522 10.5421C2.2522 5.70313 6.17494 1.7804 11.0139 1.7804C15.8528 1.7804 19.7756 5.70313 19.7756 10.5421Z" stroke="#043FA1" stroke-width="1.75234" stroke-linecap="round" stroke-linejoin="round"/>
</g>
<defs>
<clipPath id="clip0_17_54">
<rect width="21.028" height="21.028" fill="white" transform="translate(0.5 0.0280762)"/>
</clipPath>
</defs>
</svg>
