<svg width="22" height="22" viewBox="0 0 22 22" fill="none" xmlns="http://www.w3.org/2000/svg">
<path d="M11.8139 14.8949H18.0994M11.8139 14.8949L10.1377 18.3996M11.8139 14.8949L14.3243 9.64579C14.5266 9.22282 14.6277 9.01133 14.7661 8.9445C14.8865 8.88638 15.0268 8.88638 15.1471 8.9445C15.2855 9.01133 15.3867 9.22282 15.589 9.64579L18.0994 14.8949M18.0994 14.8949L19.7756 18.3996M2.2522 4.38088H7.50921M7.50921 4.38088H10.5758M7.50921 4.38088V2.62854M10.5758 4.38088H12.7662M10.5758 4.38088C10.1411 6.97196 9.13238 9.31912 7.65426 11.289M9.26154 12.2664C8.72487 12.0253 8.17741 11.6899 7.65426 11.289M7.65426 11.289C6.46921 10.3807 5.40882 9.13552 4.8807 7.88555M7.65426 11.289C6.24828 13.1627 4.41759 14.695 2.2522 15.7711" stroke="#043FA1" stroke-width="1.75234" stroke-linecap="round" stroke-linejoin="round"/>
</svg>
