<svg width="22" height="22" viewBox="0 0 22 22" fill="none" xmlns="http://www.w3.org/2000/svg">
<g clip-path="url(#clip0_13_51)">
<path d="M4.8807 13.4611C3.2586 14.1767 2.2522 15.1738 2.2522 16.2768C2.2522 18.4543 6.17494 20.2195 11.0139 20.2195C15.8528 20.2195 19.7756 18.4543 19.7756 16.2768C19.7756 15.1738 18.7692 14.1767 17.1471 13.4611M16.2709 7.95318C16.2709 11.5137 12.3281 13.2102 11.0139 15.8387C9.69963 13.2102 5.75687 11.5137 5.75687 7.95318C5.75687 5.04981 8.11051 2.69617 11.0139 2.69617C13.9172 2.69617 16.2709 5.04981 16.2709 7.95318ZM11.89 7.95318C11.89 8.43707 11.4978 8.82934 11.0139 8.82934C10.53 8.82934 10.1377 8.43707 10.1377 7.95318C10.1377 7.46928 10.53 7.07701 11.0139 7.07701C11.4978 7.07701 11.89 7.46928 11.89 7.95318Z" stroke="#043FA1" stroke-width="1.75234" stroke-linecap="round" stroke-linejoin="round"/>
</g>
<defs>
<clipPath id="clip0_13_51">
<rect width="21.028" height="21.028" fill="white" transform="translate(0.5 0.943848)"/>
</clipPath>
</defs>
</svg>
