<svg width="22" height="22" viewBox="0 0 22 22" fill="none" xmlns="http://www.w3.org/2000/svg">
<path d="M11.014 14.1145C8.23651 14.1145 5.76648 15.4556 4.19393 17.5368C3.85547 17.9847 3.68625 18.2087 3.69178 18.5113C3.69606 18.7452 3.84291 19.0402 4.02691 19.1846C4.26507 19.3715 4.5951 19.3715 5.25518 19.3715H16.7729C17.433 19.3715 17.763 19.3715 18.0011 19.1846C18.1851 19.0402 18.332 18.7452 18.3363 18.5113C18.3418 18.2087 18.1726 17.9847 17.8341 17.5368C16.2616 15.4556 13.7915 14.1145 11.014 14.1145Z" stroke="#043FA1" stroke-width="1.75234" stroke-linecap="round" stroke-linejoin="round"/>
<path d="M11.014 11.486C13.1916 11.486 14.9568 9.72075 14.9568 7.54322C14.9568 5.3657 13.1916 3.60046 11.014 3.60046C8.8365 3.60046 7.07127 5.3657 7.07127 7.54322C7.07127 9.72075 8.8365 11.486 11.014 11.486Z" stroke="#043FA1" stroke-width="1.75234" stroke-linecap="round" stroke-linejoin="round"/>
</svg>
